<?xml version="1.0" encoding="UTF-8" standalone="no"?>
<!-- Created with Inkscape (http://www.inkscape.org/) -->

<svg
   xmlns:dc="http://purl.org/dc/elements/1.1/"
   xmlns:cc="http://creativecommons.org/ns#"
   xmlns:rdf="http://www.w3.org/1999/02/22-rdf-syntax-ns#"
   xmlns:svg="http://www.w3.org/2000/svg"
   xmlns="http://www.w3.org/2000/svg"
   xmlns:sodipodi="http://sodipodi.sourceforge.net/DTD/sodipodi-0.dtd"
   xmlns:inkscape="http://www.inkscape.org/namespaces/inkscape"
   version="1.1"
   id="svg4326"
   width="420.76981"
   height="160"
   sodipodi:docname="2.svg"
   inkscape:version="0.92.3 (2405546, 2018-03-11)">
  <metadata
     id="metadata4332">
    <rdf:RDF>
      <cc:Work
         rdf:about="">
        <dc:format>image/svg+xml</dc:format>
        <dc:type
           rdf:resource="http://purl.org/dc/dcmitype/StillImage" />
        <dc:title></dc:title>
      </cc:Work>
    </rdf:RDF>
  </metadata>
  <defs
     id="defs4330" />
  <sodipodi:namedview
     pagecolor="#ffffff"
     bordercolor="#666666"
     borderopacity="1"
     objecttolerance="10"
     gridtolerance="10"
     guidetolerance="10"
     inkscape:pageopacity="0"
     inkscape:pageshadow="2"
     inkscape:window-width="1366"
     inkscape:window-height="707"
     id="namedview4328"
     showgrid="false"
     showguides="true"
     inkscape:guide-bbox="true"
     inkscape:zoom="1.1902379"
     inkscape:cx="216.76116"
     inkscape:cy="74.855049"
     inkscape:window-x="0"
     inkscape:window-y="25"
     inkscape:window-maximized="1"
     inkscape:current-layer="svg4326"
     fit-margin-top="10"
     fit-margin-left="0"
     fit-margin-right="0"
     fit-margin-bottom="0" />
  <inkscape:clipboard
     style="font-variant-east_asian:normal;opacity:1;vector-effect:none;fill:#000000;fill-opacity:1;stroke-width:3.77952756;stroke-linecap:butt;stroke-linejoin:miter;stroke-miterlimit:4;stroke-dasharray:none;stroke-dashoffset:0;stroke-opacity:1"
     min="566.5785,-46.814696"
     max="895.08424,17.185304" />
  <g
     id="g360"
     transform="matrix(1.3232068,0,0,1.3232068,1.2744639e-6,6.2003767)">
    <g
       transform="matrix(3.7795276,0,0,3.7795276,-366.08756,-1007.3344)"
       id="text4092"
       style="font-style:normal;font-weight:normal;font-size:10.58333302px;line-height:1.25;font-family:sans-serif;letter-spacing:0px;word-spacing:0px;fill:#f70000;fill-opacity:1;stroke:none;stroke-width:0.26458332"
       aria-label="UTOCAR">
      <path
         inkscape:connector-curvature="0"
         id="path4164"
         style="font-style:normal;font-variant:normal;font-weight:normal;font-stretch:normal;font-size:14.11111069px;font-family:'Racing Sans One';-inkscape-font-specification:'Racing Sans One';fill:#f70000;fill-opacity:1;stroke-width:0.26458332"
         d="m 115.38304,281.04421 q -0.0706,0.31045 -0.11289,0.53623 -0.0423,0.22577 -0.0423,0.42333 0,0.49389 0.33866,0.79022 0.35278,0.29634 1.03011,0.29634 0.49389,0 0.80434,-0.16934 0.32455,-0.16933 0.52211,-0.45155 0.21166,-0.28223 0.32455,-0.64911 0.127,-0.36689 0.21167,-0.77612 l 1.19944,-5.75733 h 1.28412 l -1.22767,5.78556 q -0.14111,0.67733 -0.40922,1.27 -0.26811,0.59266 -0.77611,1.04422 -0.49389,0.45155 -1.28412,0.71967 -0.79022,0.254 -1.96144,0.254 -1.62278,0 -2.39889,-0.52212 -0.77611,-0.53622 -0.77611,-1.63688 0,-0.49389 0.127,-1.25589 0.127,-0.762 0.32456,-1.651 l 0.86077,-4.00756 h 3.20323 z" />
      <path
         inkscape:connector-curvature="0"
         id="path4166"
         style="font-style:normal;font-variant:normal;font-weight:normal;font-stretch:normal;font-size:14.11111069px;font-family:'Racing Sans One';-inkscape-font-specification:'Racing Sans One';fill:#f70000;fill-opacity:1;stroke-width:0.26458332"
         d="m 129.11116,276.35933 h -2.27188 l -1.67923,7.88811 h -3.048 l 1.67923,-7.88811 h -2.24367 l 0.254,-1.07245 h 7.54944 z" />
      <path
         inkscape:connector-curvature="0"
         id="path4168"
         style="font-style:normal;font-variant:normal;font-weight:normal;font-stretch:normal;font-size:14.11111069px;font-family:'Racing Sans One';-inkscape-font-specification:'Racing Sans One';fill:#f70000;fill-opacity:1;stroke-width:0.26458332"
         d="m 133.89637,275.14577 q 1.21356,0 1.96145,0.31044 0.762,0.31045 1.19944,0.95956 0.28223,0.43744 0.43745,0.98778 0.15522,0.55033 0.15522,1.27 0,0.62089 -0.11289,1.24178 -0.11289,0.62088 -0.32455,1.19944 -0.19756,0.56444 -0.49389,1.07244 -0.28223,0.49389 -0.635,0.87489 -0.66323,0.71967 -1.53811,1.016 -0.86078,0.28223 -2.13078,0.28223 -1.22767,0 -1.97556,-0.254 -0.74789,-0.254 -1.18533,-0.81845 -0.31045,-0.39511 -0.49389,-1.00189 -0.16933,-0.60678 -0.16933,-1.524 0,-1.56633 0.55033,-2.794 0.56444,-1.24178 1.59456,-1.96144 0.62088,-0.43745 1.38288,-0.64911 0.762,-0.21167 1.778,-0.21167 z m -1.59455,8.22678 q 0.32455,0 0.60678,-0.28222 0.29633,-0.29634 0.53622,-0.77612 0.254,-0.49388 0.45155,-1.11477 0.21167,-0.62089 0.35278,-1.28411 0.14111,-0.66323 0.21167,-1.31234 0.0847,-0.66322 0.0847,-1.19944 0,-0.73378 -0.15523,-1.00189 -0.14111,-0.28222 -0.42333,-0.28222 -0.32456,0 -0.62089,0.28222 -0.29633,0.28222 -0.56444,0.762 -0.254,0.46567 -0.46567,1.08655 -0.19756,0.60678 -0.35278,1.25589 -0.14111,0.64911 -0.22578,1.28411 -0.0705,0.635 -0.0705,1.17123 0,0.80433 0.16933,1.11477 0.18345,0.29634 0.46567,0.29634 z" />
      <path
         inkscape:connector-curvature="0"
         id="path4170"
         style="fill:#afafaf;fill-opacity:1;stroke-width:0.26458332"
         d="m 145.7292,283.48544 q -0.35277,0.16933 -0.73377,0.33866 -0.36689,0.15523 -0.79023,0.28223 -0.42333,0.11288 -0.93133,0.18344 -0.49389,0.0706 -1.08656,0.0706 -1.89088,0 -2.921,-0.84667 -1.016,-0.84667 -1.016,-2.82222 0,-1.143 0.35278,-2.14489 0.35278,-1.016 1.04422,-1.76389 0.69145,-0.762 1.70745,-1.19945 1.016,-0.43744 2.32833,-0.43744 0.62089,0 1.12889,0.0847 0.52211,0.0847 0.93133,0.22577 0.42334,0.127 0.74789,0.28223 0.33867,0.15522 0.60678,0.29633 l -0.508,2.62467 h -2.54 q 0.0141,-0.14111 0.0282,-0.36689 0.0282,-0.22578 0.0423,-0.45156 0.0141,-0.23989 0.0282,-0.46566 0.0141,-0.22578 0.0141,-0.381 0,-0.11289 -0.0141,-0.254 -0.0141,-0.15523 -0.0706,-0.29634 -0.0564,-0.14111 -0.18344,-0.22578 -0.11289,-0.0988 -0.31045,-0.0988 -0.36688,0 -0.67733,0.31044 -0.29633,0.29633 -0.53622,0.80433 -0.23989,0.49389 -0.42333,1.12889 -0.18345,0.635 -0.31045,1.29823 -0.11289,0.64911 -0.18344,1.28411 -0.0565,0.635 -0.0565,1.11477 0,0.14112 0.0141,0.35278 0.0141,0.21167 0.0847,0.40922 0.0706,0.19756 0.21167,0.33867 0.15522,0.14111 0.40922,0.14111 0.43744,0 0.84667,-0.53622 0.40922,-0.55033 0.71966,-1.94733 h 2.61056 z" />
      <path
         inkscape:connector-curvature="0"
         id="path4172"
         style="fill:#afafaf;fill-opacity:1;stroke-width:0.26458332"
         d="m 154.60046,284.24744 h -3.302 l -0.19755,-2.24367 h -2.61056 l -1.00189,2.24367 h -1.36878 l 4.16278,-8.96056 h 3.34433 z m -5.64444,-3.27378 h 2.04611 l -0.32456,-3.83822 z" />
      <path
         inkscape:connector-curvature="0"
         id="path4174"
         style="fill:#afafaf;fill-opacity:1;stroke-width:0.26458332"
         d="m 164.06284,277.41766 q 0,0.83255 -0.46566,1.53811 -0.46567,0.70556 -1.53811,1.07244 l 1.63688,4.21923 h -3.14677 l -1.24178,-3.90878 h -0.15522 l -0.83256,3.90878 h -3.048 l 1.905,-8.96056 h 3.71122 q 0.64911,0 1.22767,0.0847 0.57856,0.0705 1.00189,0.31044 0.43744,0.22578 0.69144,0.64911 0.254,0.40923 0.254,1.08656 z m -4.064,2.01789 q 0.36689,0 0.62089,-0.23989 0.26811,-0.254 0.42334,-0.60678 0.16933,-0.35278 0.23988,-0.74789 0.0706,-0.40922 0.0706,-0.70555 0,-0.36689 -0.127,-0.62089 -0.127,-0.26811 -0.55033,-0.26811 h -0.635 l -0.70556,3.18911 z" />
    </g>
    <g
       transform="matrix(3.7795276,0,0,3.7795276,-366.08756,-994.26782)"
       id="text4096"
       style="font-style:normal;font-variant:normal;font-weight:normal;font-stretch:normal;font-size:10.58333302px;line-height:1.25;font-family:'Racing Sans One';-inkscape-font-specification:'Racing Sans One';letter-spacing:0px;word-spacing:0px;fill:#ffffff;fill-opacity:1;stroke:none;stroke-width:0.26458332"
       aria-label="A">
      <path
         inkscape:connector-curvature="0"
         id="path4177"
         style="font-style:normal;font-variant:normal;font-weight:normal;font-stretch:normal;font-size:25.39999962px;font-family:'Racing Sans One';-inkscape-font-specification:'Racing Sans One';fill:#f70000;fill-opacity:1;stroke-width:0.26458332"
         d="m 112.12607,287.81757 h -5.9436 l -0.3556,-4.0386 h -4.699 l -1.803404,4.0386 h -2.4638 l 7.493004,-16.129 h 6.0198 z m -10.16,-5.8928 h 3.683 l -0.5842,-6.9088 z" />
    </g>
    <path
       style="fill:#e6e6e6;fill-opacity:1;stroke:none;stroke-width:0.02209708"
       d="m 259.66263,68.031797 c -3.92145,-3.942085 -4.82528,-4.861342 -4.80446,-4.886438 0.0227,-0.02646 0.0265,-0.02646 0.0382,0.0038 0.008,0.0189 0.51987,0.544932 1.14017,1.167761 0.62029,0.622866 2.24035,2.256113 3.60015,3.629442 1.3598,1.373367 3.01447,3.041008 3.67706,3.705903 0.66259,0.664932 1.19898,1.214702 1.19195,1.221732 -0.008,0.0076 -2.18634,-2.172246 -4.8429,-4.842784 z"
       id="path4098"
       inkscape:connector-curvature="0"
       inkscape:export-xdpi="75.944191"
       inkscape:export-ydpi="75.944191" />
    <g
       id="g4162"
       transform="matrix(3.7795276,0,0,3.7795276,-577.09178,-1007.3344)">
      <g
         style="fill:#000000"
         transform="matrix(0.63503112,0,0,0.63286826,124.52218,190.58454)"
         id="g4160">
        <path
           style="fill:#000000;fill-opacity:1;stroke:none;stroke-width:0.37797621"
           d="m 152.92773,151.54847 -2.3528,-2.3739 1.43594,-1.40217 c 1.3597,-1.32771 1.47058,-1.36754 2.08803,-0.75009 0.61744,0.61744 0.81738,0.48631 3.76506,-2.4695 l 3.11298,-3.12156 -2.50991,-2.4454 c -2.2515,-2.19364 -2.66767,-2.4454 -4.04217,-2.4454 -2.03319,0 -3.41088,-1.18894 -3.72289,-3.2128 l -0.23308,-1.51191 0.9073,0.74506 c 0.49901,0.40979 1.34175,1.13259 1.87275,1.60623 l 0.96545,0.86118 1.28432,-1.32509 1.28432,-1.32508 -1.66701,-1.69856 -1.66701,-1.69856 h 1.12852 c 2.22488,0 4.10372,2.38838 3.66876,4.66373 -0.17771,0.92962 0.11526,1.39596 2.19579,3.49515 l 2.40087,2.4224 1.80544,-1.7783 1.80545,-1.7783 -1.20619,-1.24448 c -0.66342,-0.68447 -1.50298,-1.24449 -1.8657,-1.24449 -1.20094,0 -1.06857,-0.61574 0.45148,-2.10002 l 1.50227,-1.46693 4.52474,4.51295 4.52474,4.51295 -1.39904,1.43274 c -1.38195,1.41525 -2.27065,1.67403 -2.0877,0.60792 0.0518,-0.30166 -0.50453,-1.12871 -1.23623,-1.83789 l -1.33035,-1.28943 -1.78334,1.78335 -1.78334,1.78334 2.52405,2.52405 c 2.44309,2.44309 2.5865,2.52495 4.47114,2.55227 1.64546,0.0239 2.0882,0.19227 2.85788,1.08707 2.13643,2.48375 0.42744,6.30835 -2.81883,6.30835 -2.22863,0 -3.47226,-1.2043 -3.7209,-3.60324 -0.1762,-1.70002 -0.43076,-2.11859 -2.69412,-4.42988 l -2.49953,-2.55246 -3.11955,3.10335 -3.11955,3.10334 0.74495,0.79297 0.74495,0.79296 -1.42757,1.39399 -1.42758,1.39399 z m 21.19652,0.20148 c 0.58681,-0.64843 0.60862,-0.90994 0.18414,-2.20838 -0.40795,-1.24788 -0.70027,-1.52691 -1.91375,-1.82677 -1.28767,-0.3182 -1.5332,-0.25298 -2.43217,0.64599 -0.89904,0.89903 -0.96421,1.14448 -0.646,2.43279 0.29073,1.17702 0.59014,1.50985 1.67684,1.86397 1.40961,0.45935 2.06608,0.26906 3.13094,-0.9076 z m -18.60167,-1.06708 c 0.67146,-0.80905 -0.004,-1.8582 -1.19624,-1.8582 -0.92544,0 -1.35537,0.86277 -0.95275,1.91196 0.27828,0.7252 1.52847,0.69393 2.14899,-0.0538 z m 14.14781,-14.85718 c 0,-1.27028 -1.11814,-1.91986 -1.92163,-1.11637 -0.94134,0.94134 -0.36624,2.28473 0.91465,2.13658 0.77742,-0.0899 1.00698,-0.3225 1.00698,-1.02021 z"
           id="path4102"
           inkscape:connector-curvature="0" />
        <path
           style="fill:#000000;fill-opacity:1;stroke:none;stroke-width:0.06681738"
           d="m 162.53104,133.3664 -0.484,-0.46447 1.58679,-1.58987 1.5868,-1.58986 2.03546,2.03464 c 1.11951,1.11906 2.02044,2.04968 2.00207,2.06805 -0.0184,0.0184 -0.9127,-0.84552 -1.98741,-1.91976 l -1.95401,-1.95317 -1.20493,1.22117 c -1.52476,1.54531 -1.71771,1.84158 -1.40379,2.15551 0.12846,0.12845 0.23723,0.16815 0.46074,0.16815 0.16092,0 0.3116,0.019 0.33486,0.0423 0.0576,0.0576 -0.2489,0.29181 -0.38176,0.29181 -0.0588,0 -0.32461,-0.20902 -0.59082,-0.46448 z"
           id="path4104"
           inkscape:connector-curvature="0" />
        <path
           style="fill:#000000;fill-opacity:1;stroke:none;stroke-width:0.06681738"
           d="m 170.36323,133.99535 -4.70708,-4.70744 0.35061,-0.35061 0.35061,-0.35061 4.71032,4.70996 c 2.59068,2.59047 4.70708,4.72507 4.70311,4.74354 -0.004,0.0185 -0.1632,0.17512 -0.35385,0.3481 l -0.34663,0.3145 z"
           id="path4106"
           inkscape:connector-curvature="0" />
        <path
           style="fill:#000000;fill-opacity:1;stroke:none;stroke-width:0.06681738"
           d="m 171.47125,132.85233 -4.60744,-4.63845 0.34814,-0.34813 0.34814,-0.34814 4.64254,4.64219 4.64255,4.64218 -0.34756,0.35193 c -0.19115,0.19356 -0.36361,0.34853 -0.38324,0.34439 -0.0196,-0.004 -2.10904,-2.09483 -4.64313,-4.64597 z"
           id="path4108"
           inkscape:connector-curvature="0" />
        <path
           style="fill:#000000;fill-opacity:1;stroke:none;stroke-width:0.06681738"
           d="m 154.84115,130.78298 c -1.5519,-1.56817 -1.71016,-1.74815 -1.56198,-1.77648 0.14273,-0.0273 0.38723,0.1965 1.82017,1.66597 1.35573,1.39028 1.63841,1.71178 1.56198,1.77648 -0.076,0.0643 -0.41386,-0.24492 -1.82017,-1.66597 z"
           id="path4110"
           inkscape:connector-curvature="0" />
        <path
           style="fill:#000000;fill-opacity:1;stroke:none;stroke-width:0.06681738"
           d="m 152.62579,133.62536 c -0.33075,-0.29304 -0.92291,-0.79515 -1.31592,-1.1158 -0.51373,-0.41914 -0.7156,-0.62523 -0.71828,-0.73332 -0.002,-0.0827 0.0224,-0.15034 0.0542,-0.15034 0.075,0 1.49046,1.29755 2.17883,1.99729 0.29313,0.29797 0.50361,0.54025 0.46772,0.53838 -0.0359,-0.002 -0.33586,-0.24316 -0.6666,-0.53621 z"
           id="path4112"
           inkscape:connector-curvature="0" />
        <path
           style="fill:#000000;fill-opacity:1;stroke:none;stroke-width:0.06681738"
           d="m 153.56123,136.77361 c -1.84144,-0.39883 -3.05524,-1.91449 -3.03324,-3.78759 l 0.007,-0.59172 0.11715,0.67232 c 0.0644,0.36978 0.17017,0.83583 0.23498,1.03567 0.37219,1.14769 1.27629,2.0087 2.41444,2.29936 0.21635,0.0553 0.79469,0.12877 1.28521,0.16338 0.86449,0.061 1.01596,0.0909 0.92428,0.18262 -0.069,0.069 -1.65373,0.0901 -1.94976,0.026 z"
           id="path4114"
           inkscape:connector-curvature="0" />
        <path
           style="fill:#000000;fill-opacity:1;stroke:none;stroke-width:0.26458332"
           d="m 153.97858,152.97995 c -0.63379,-0.60313 -1.7384,-1.6856 -2.45469,-2.40548 l -1.30236,-1.30889 1.56922,-1.57028 c 0.86308,-0.86366 1.5884,-1.56272 1.61183,-1.55345 0.0234,0.009 0.32229,0.2837 0.66413,0.60988 0.3997,0.38139 0.56349,0.57476 0.45893,0.54181 -0.0894,-0.0282 -0.30868,-0.1823 -0.48721,-0.34248 -0.39724,-0.35641 -0.63516,-0.38011 -1.0197,-0.10155 -0.14403,0.10434 -0.75741,0.67204 -1.36308,1.26156 l -1.1012,1.07187 2.3348,2.34657 c 1.28415,1.29062 2.37779,2.34658 2.43032,2.34658 0.0773,0 0.0797,0.0191 0.0123,0.10023 -0.0457,0.0551 -0.10969,0.10022 -0.14208,0.10022 -0.0324,0 -0.57745,-0.49346 -1.21124,-1.09659 z"
           id="path4116"
           inkscape:connector-curvature="0" />
        <path
           style="fill:#000000;fill-opacity:1;stroke:none;stroke-width:0.06681738"
           d="m 160.93489,137.62276 c -1.77848,-1.83362 -2.32895,-2.43923 -2.32895,-2.56226 0,-0.0327 0.97725,0.91736 2.17167,2.11135 l 2.17168,2.17091 1.65314,-1.65315 1.65315,-1.65314 -1.06782,-1.06939 c -0.5873,-0.58816 -1.04237,-1.06938 -1.01126,-1.06938 0.12911,0 0.9542,0.72614 1.57953,1.3901 l 0.66993,0.71133 -1.75467,1.75561 c -0.96508,0.96559 -1.78863,1.75561 -1.83013,1.75561 -0.0415,0 -0.89931,-0.84941 -1.90627,-1.88759 z"
           id="path4118"
           inkscape:connector-curvature="0" />
        <path
           style="fill:#000000;fill-opacity:1;stroke:none;stroke-width:0.06681738"
           d="m 171.05415,141.8585 c -0.21322,-0.1785 -0.44542,-0.38949 -0.516,-0.46887 -0.1274,-0.14328 -0.12695,-0.14577 0.0626,-0.34363 0.10502,-0.10961 0.21538,-0.1993 0.24526,-0.1993 0.0299,0 0.0543,0.13285 0.0543,0.29522 0,0.42321 0.048,0.50669 0.29112,0.50596 0.39228,-10e-4 0.91094,-0.38588 2.08737,-1.54826 1.02432,-1.0121 1.15185,-1.11732 1.23408,-1.01824 0.0816,0.0984 -0.0745,0.2746 -1.42305,1.60609 -0.83312,0.82257 -1.54476,1.49558 -1.58141,1.49558 -0.0367,0 -0.24108,-0.14605 -0.4543,-0.32455 z"
           id="path4120"
           inkscape:connector-curvature="0" />
        <path
           style="fill:#000000;fill-opacity:1;stroke:none;stroke-width:0.01670435"
           d="m 169.63342,146.09783 c -0.3017,-0.18941 -0.62138,-0.45149 -1.11908,-0.91743 -0.37442,-0.35053 -3.73575,-3.70348 -3.73575,-3.72643 0,-0.01 0.53217,-0.5498 1.18261,-1.20018 l 1.1826,-1.18252 0.13717,0.005 0.13717,0.005 -1.1778,1.17762 -1.1778,1.17762 2.37618,2.37623 c 1.3069,1.30692 2.36795,2.37623 2.35788,2.37623 -0.0101,0 -0.0835,-0.0409 -0.16318,-0.0909 z"
           id="path4122"
           inkscape:connector-curvature="0" />
        <path
           style="fill:#000000;fill-opacity:1;stroke:none;stroke-width:0.01670435"
           d="m 173.23934,148.10709 c -0.29888,-0.0868 -2.02225,-0.5318 -2.0598,-0.53183 -0.012,-10e-6 -0.0166,-0.008 -0.0102,-0.0189 0.0162,-0.0263 0.43876,-0.009 0.63339,0.0264 0.61244,0.11029 1.26679,0.30691 1.53815,0.46217 0.12181,0.0697 0.22894,0.14826 0.19911,0.14602 -0.009,-8e-4 -0.1445,-0.0384 -0.30068,-0.0838 z"
           id="path4124"
           inkscape:connector-curvature="0" />
        <path
           style="fill:#000000;fill-opacity:1;stroke:none;stroke-width:0.01670435"
           d="m 169.1804,149.44613 c 0.0901,-0.31969 0.26486,-0.55927 0.79243,-1.08615 0.35371,-0.35325 0.49923,-0.48079 0.69612,-0.6101 0.10955,-0.0719 0.36086,-0.18172 0.39216,-0.17129 0.008,0.003 -0.41411,0.43349 -0.93869,0.95716 -0.58446,0.58345 -0.94923,0.93597 -0.94202,0.91038 z"
           id="path4126"
           inkscape:connector-curvature="0" />
        <path
           style="fill:#000000;fill-opacity:1;stroke:none;stroke-width:0.04724703"
           d="m 156.73221,152.51773 1.40912,-1.3805 -0.72404,-0.77286 c -0.39823,-0.42508 -0.73013,-0.78839 -0.73756,-0.80737 -0.007,-0.019 1.38333,-1.42084 3.09058,-3.11525 l 3.10408,-3.08074 0.35118,0.34551 c 1.46358,1.43995 3.98014,4.10043 3.98014,4.20776 0,0.013 -0.9727,-0.95226 -2.16156,-2.14509 l -2.16155,-2.16877 -2.98597,2.98976 -2.98597,2.98976 0.71438,0.74735 0.71438,0.74736 -0.79947,0.80394 c -1.08244,1.0885 -2.08069,2.02497 -2.15543,2.02204 -0.0338,-0.001 0.57267,-0.62363 1.34769,-1.3829 z"
           id="path4128"
           inkscape:connector-curvature="0" />
        <path
           style="fill:#000000;fill-opacity:1;stroke:none;stroke-width:0.02362351"
           d="m 171.28738,154.25395 c -1.73169,-0.20126 -3.11004,-1.50549 -3.40647,-3.22329 -0.0531,-0.30792 -0.0683,-0.77725 -0.0376,-1.16187 0.0353,-0.4411 0.0527,-0.56366 0.0748,-0.52383 0.0306,0.0553 0.0897,0.4154 0.15159,0.92306 0.0699,0.57381 0.14663,0.95598 0.2629,1.31009 0.50994,1.55311 1.67439,2.34643 3.44412,2.34643 1.06163,0 1.9334,-0.35537 2.66143,-1.08492 0.33927,-0.33999 0.53911,-0.62109 0.74038,-1.04148 0.28749,-0.60047 0.41682,-1.22194 0.38397,-1.84516 -0.054,-1.02477 -0.48961,-1.93494 -1.29399,-2.70369 -0.58447,-0.55859 -0.98859,-0.6744 -2.51056,-0.71945 -0.66729,-0.0198 -1.18634,-0.0551 -1.21513,-0.0827 -0.005,-0.004 0.0761,-0.0344 0.17892,-0.0669 0.72513,-0.22907 1.68031,-0.19945 2.51078,0.0779 0.2462,0.0822 0.6537,0.26949 0.83832,0.3853 0.35222,0.22093 0.75533,0.59701 1.00942,0.94175 0.69479,0.94263 0.94519,2.09898 0.69986,3.232 -0.25655,1.18487 -1.05662,2.23249 -2.17401,2.84669 -0.53115,0.29195 -1.60651,0.47287 -2.31871,0.3901 z"
           id="path4130"
           inkscape:connector-curvature="0" />
        <path
           style="fill:#000000;fill-opacity:1;stroke:none;stroke-width:0.02362351"
           d="m 172.59441,152.83132 c 0.006,-0.006 0.0915,-0.0773 0.18893,-0.15916 0.24497,-0.2057 1.74815,-1.7042 1.74815,-1.74269 0,-0.0363 -0.4723,-1.8085 -0.5428,-2.03674 -0.0942,-0.30495 -0.0425,-0.26592 0.10415,0.0786 0.19557,0.45958 0.43913,1.26805 0.48614,1.61375 0.0624,0.45858 -0.0462,0.71005 -0.54359,1.25876 -0.37567,0.41445 -0.81348,0.75592 -1.14972,0.89672 -0.1485,0.0622 -0.31913,0.11537 -0.29126,0.0908 z"
           id="path4132"
           inkscape:connector-curvature="0" />
        <path
           style="fill:#000000;fill-opacity:1;stroke:none;stroke-width:0.01181176"
           d="m 169.71235,151.84001 c -0.1537,-0.23994 -0.26652,-0.539 -0.39188,-1.03874 -0.0603,-0.24056 -0.113,-0.48707 -0.14325,-0.67057 -0.0257,-0.15575 -0.044,-0.49733 -0.0251,-0.46751 0.006,0.01 0.10274,0.35524 0.21459,0.76776 0.11184,0.41253 0.25083,0.91686 0.30884,1.12073 0.058,0.20388 0.10331,0.37287 0.10064,0.37553 -0.003,0.003 -0.0314,-0.0366 -0.0638,-0.0872 z"
           id="path4134"
           inkscape:connector-curvature="0" />
        <path
           style="fill:#000000;fill-opacity:1;stroke:none;stroke-width:0.00590588"
           d="m 169.68264,139.48274 c -0.58128,-0.5785 -1.12,-1.11457 -1.19715,-1.19126 l -0.14028,-0.13945 -0.46507,0.46445 -0.46508,0.46445 -0.12944,-0.005 c -0.0712,-0.003 -0.13022,-0.006 -0.13117,-0.007 -0.001,-0.001 0.26338,-0.2668 0.58738,-0.59078 l 0.58909,-0.58907 0.62285,0.60317 c 0.70841,0.68604 0.85441,0.82987 0.98578,0.97116 0.25268,0.27178 0.47778,0.55316 0.64725,0.80911 0.0795,0.12011 0.16018,0.25492 0.15537,0.25973 -0.002,0.002 -0.47824,-0.47067 -1.05953,-1.04917 z"
           id="path4136"
           inkscape:connector-curvature="0" />
        <path
           style="fill:#000000;fill-opacity:1;stroke:none;stroke-width:0.01181176"
           d="m 168.00463,136.7753 c -0.24361,-0.0961 -0.41509,-0.2315 -0.54368,-0.42919 -0.21952,-0.33749 -0.23378,-0.77136 -0.0387,-1.1766 0.0802,-0.16652 0.16022,-0.27909 0.30609,-0.4305 0.25128,-0.2608 0.49877,-0.37773 0.79794,-0.37699 0.2591,5.3e-4 0.49216,0.0989 0.70209,0.29599 0.0657,0.0617 0.0757,0.0939 0.0162,0.0518 -0.16783,-0.11851 -0.52022,-0.21558 -0.78143,-0.21526 -0.24279,2.7e-4 -0.37754,0.0764 -0.66572,0.37597 -0.39052,0.40596 -0.47827,0.75579 -0.29575,1.17914 0.11385,0.26407 0.33538,0.55068 0.54462,0.7046 0.0863,0.0635 0.0773,0.068 -0.0417,0.021 z"
           id="path4138"
           inkscape:connector-curvature="0" />
        <path
           style="fill:#000000;fill-opacity:1;stroke:none;stroke-width:0.03340869"
           d="m 174.4545,139.28904 c 0,-0.0201 0.015,-0.0459 0.0334,-0.0573 0.05,-0.0309 0.0403,-0.14981 -0.014,-0.17063 -0.0261,-0.01 -0.0862,0.007 -0.13363,0.0383 -0.10327,0.0677 -0.11273,0.0312 -0.0181,-0.0696 l 0.0682,-0.0726 -2.58982,-2.56486 c -1.42439,-1.41068 -2.58152,-2.57827 -2.57139,-2.59466 0.0101,-0.0164 -0.89487,-0.94654 -2.0111,-2.067 -1.11623,-1.12047 -2.01557,-2.03721 -1.99853,-2.03721 0.0365,0 6.08506,6.0524 8.02731,8.03238 0.73771,0.75203 1.34129,1.3924 1.34129,1.42304 0,0.0306 -0.0301,0.0829 -0.0668,0.11617 -0.0368,0.0333 -0.0668,0.044 -0.0668,0.0239 z"
           id="path4140"
           inkscape:connector-curvature="0" />
        <path
           style="fill:#000000;fill-opacity:1;stroke:none;stroke-width:0.00835217"
           d="m 162.48231,138.87404 c -0.33106,-0.3311 -0.46561,-0.47092 -0.46353,-0.48167 0.002,-0.011 0.12804,0.11148 0.4555,0.44297 l 0.45255,0.45812 0.19056,-0.18474 c 0.10481,-0.1016 0.84454,-0.83903 1.64384,-1.63872 l 1.45328,-1.45398 -1.00226,-1.00046 c -0.55125,-0.55025 -1.06132,-1.05345 -1.1335,-1.11822 -0.23771,-0.21331 -0.33976,-0.27926 -0.441,-0.28498 -0.072,-0.004 -0.1125,0.0158 -0.2135,0.10486 -0.1692,0.14913 -0.21288,0.17718 -0.27639,0.17752 -0.0785,5.3e-4 -0.17643,-0.0684 -0.37954,-0.26644 -0.0989,-0.0965 -0.1322,-0.13362 -0.11995,-0.1339 0.01,-2.2e-4 0.0622,0.0384 0.12528,0.0924 0.11338,0.0971 0.2553,0.20388 0.30391,0.22862 0.0199,0.0102 0.0407,0.0134 0.069,0.0106 0.11473,-0.011 0.35829,-0.19016 0.36095,-0.26547 5.3e-4,-0.0136 0.003,-0.0248 0.006,-0.0248 0.0157,-5e-5 0.18179,0.0626 0.25005,0.0943 0.13343,0.062 0.49212,0.27588 0.4811,0.28691 -0.002,0.002 -0.0168,-0.002 -0.0335,-0.009 -0.0166,-0.007 -0.0324,-0.0126 -0.035,-0.0126 -0.0179,0 0.0789,0.11108 0.31273,0.35915 0.12002,0.1273 0.64274,0.65678 1.43887,1.45747 l 0.32393,0.32576 -1.65164,1.65163 -1.65165,1.65163 z"
           id="path4142"
           inkscape:connector-curvature="0" />
        <path
           style="fill:#000000;fill-opacity:1;stroke:none;stroke-width:0.00835217"
           d="m 165.67374,136.74924 0.75379,-0.75382 -0.0685,-0.0686 c -0.0377,-0.0377 -0.0667,-0.0704 -0.0643,-0.0728 0.002,-0.002 0.0389,0.0306 0.0814,0.0732 l 0.0772,0.0775 -0.7599,0.74913 c -0.41795,0.41202 -0.76293,0.74912 -0.76662,0.74912 -0.004,0 0.33249,-0.33922 0.74707,-0.75382 z"
           id="path4144"
           inkscape:connector-curvature="0" />
        <path
           style="fill:#000000;fill-opacity:1;stroke:none;stroke-width:0.04724703"
           d="m 158.2454,133.85798 c 0.0661,-0.70992 0.0478,-1.43749 -0.0456,-1.8072 -0.19859,-0.78638 -0.82087,-1.76487 -1.43271,-2.25283 -0.71042,-0.56658 -1.35695,-0.78785 -2.44145,-0.83556 l -0.71353,-0.0314 0.39552,-0.065 c 1.34768,-0.22145 2.78797,0.37686 3.65981,1.52031 0.54546,0.7154 0.78646,1.37676 0.82174,2.25504 0.0212,0.5282 0.0102,0.64674 -0.10388,1.12212 -0.0702,0.29234 -0.13952,0.53153 -0.1541,0.53153 -0.0146,0 -0.008,-0.19667 0.0142,-0.43704 z"
           id="path4146"
           inkscape:connector-curvature="0" />
        <path
           style="fill:#000000;fill-opacity:1;stroke:none;stroke-width:0.00835217"
           d="m 153.74096,134.60498 c -0.25879,-0.23083 -0.49775,-0.44377 -0.53102,-0.4732 -0.0333,-0.0294 -0.059,-0.055 -0.0572,-0.0567 0.002,-0.002 0.0327,0.0179 0.0688,0.0438 0.0969,0.0695 0.0944,0.0451 -0.008,-0.0777 -0.10932,-0.13097 -0.27988,-0.31046 -0.55,-0.57881 -0.16101,-0.15995 -0.26536,-0.2698 -0.26536,-0.27934 0,-0.0103 0.082,0.0654 0.23595,0.21789 0.65521,0.64877 1.26943,1.21444 1.44162,1.32767 l 0.0364,0.0239 0.0445,-0.0233 c 0.045,-0.0235 0.19415,-0.14157 0.31689,-0.2507 0.32973,-0.29317 0.73013,-0.68209 1.42776,-1.38684 l 0.61745,-0.62375 -0.17889,-0.17903 c -0.0984,-0.0985 -0.17304,-0.17903 -0.1659,-0.17903 0.007,0 0.024,0.0117 0.0375,0.026 0.0135,0.0143 0.0686,0.0649 0.12242,0.11251 0.21362,0.1889 0.32102,0.24745 0.33701,0.18373 0.009,-0.0373 -0.0382,-0.11836 -0.14689,-0.25021 l -0.0593,-0.072 h 0.0291 c 0.0267,0 0.0395,0.011 0.1547,0.13154 0.0691,0.0724 0.12669,0.13352 0.12801,0.13593 0.002,0.004 -2.55605,2.64744 -2.56212,2.64744 -0.001,0 -0.21437,-0.18887 -0.47317,-0.4197 z"
           id="path4148"
           inkscape:connector-curvature="0" />
        <path
           style="fill:#000000;fill-opacity:1;stroke:none;stroke-width:0.00590588"
           d="m 154.16199,151.25671 c -0.008,-0.001 -0.0387,-0.005 -0.0679,-0.009 -0.20772,-0.0259 -0.40417,-0.11413 -0.53688,-0.24124 -0.10485,-0.10041 -0.16071,-0.19655 -0.22147,-0.3811 -0.15596,-0.47368 -0.14911,-0.90665 0.0196,-1.24233 0.0153,-0.0304 0.0291,-0.0539 0.0308,-0.0522 0.002,0.002 -0.002,0.0136 -0.009,0.0265 -0.0439,0.0861 -0.0905,0.23935 -0.1109,0.36444 -0.0149,0.0914 -0.0148,0.30459 5e-5,0.39569 0.0241,0.14724 0.0595,0.26164 0.11946,0.38606 0.12116,0.25136 0.31939,0.44712 0.55183,0.54494 0.32029,0.1348 0.6515,0.15591 0.94537,0.0603 0.0852,-0.0277 0.22203,-0.0964 0.29486,-0.14802 0.0729,-0.0516 0.20988,-0.18862 0.26152,-0.26151 0.0521,-0.0735 0.12092,-0.21101 0.14802,-0.29565 0.0684,-0.21367 0.0738,-0.43176 0.0162,-0.65222 -0.0596,-0.22787 -0.17702,-0.43023 -0.37789,-0.65115 -0.0332,-0.0365 -0.059,-0.0664 -0.0573,-0.0664 0.013,0 0.1232,0.0739 0.19133,0.12825 0.23649,0.18866 0.38939,0.45095 0.42083,0.72193 0.01,0.0829 0.004,0.2162 -0.0117,0.29695 -0.0444,0.22303 -0.16599,0.43245 -0.3613,0.62203 -0.12672,0.123 -0.24286,0.20417 -0.40982,0.28639 -0.1844,0.0908 -0.3677,0.14385 -0.56992,0.16492 -0.0525,0.005 -0.23301,0.007 -0.26576,0.002 z"
           id="path4150"
           inkscape:connector-curvature="0" />
        <path
           style="fill:#000000;fill-opacity:1;stroke:none;stroke-width:0.01169304"
           d="m 154.99438,147.15433 c 0.70404,-0.64428 1.39801,-1.32088 3.25361,-3.17217 l 1.51717,-1.51365 v 0.0873 0.0873 l -1.52887,1.53226 c -1.43413,1.43732 -1.89641,1.89268 -2.30658,2.27203 -0.36187,0.33469 -0.68822,0.59921 -0.88443,0.71688 -0.13626,0.0817 -0.14842,0.0794 -0.0509,-0.01 z"
           id="path4152"
           inkscape:connector-curvature="0" />
        <path
           style="fill:#000000;fill-opacity:1;stroke:none;stroke-width:0.01169304"
           d="m 150.51544,149.58175 -0.33562,-0.33577 1.59602,-1.59598 1.59602,-1.59599 0.2101,0.20986 c 0.11555,0.11542 0.20789,0.21207 0.20519,0.21477 -0.003,0.003 -0.067,-0.0531 -0.14281,-0.12397 -0.14843,-0.13871 -0.2348,-0.2131 -0.24741,-0.2131 -0.0328,0 -1.01794,0.96129 -2.28167,2.22649 l -0.89446,0.8955 0.32097,0.32114 c 0.17654,0.17662 0.31835,0.32377 0.31514,0.32698 -0.003,0.003 -0.15688,-0.14525 -0.34147,-0.32993 z"
           id="path4154"
           inkscape:connector-curvature="0" />
        <path
           style="fill:#000000;fill-opacity:1;stroke:none;stroke-width:0.01169304"
           d="m 159.76534,142.55232 v -0.0876 l 0.48623,-0.48633 0.48623,-0.48633 -1.62986,-1.61847 c -2.22998,-2.21439 -2.65723,-2.62472 -3.04054,-2.92009 -0.0627,-0.0483 -0.11149,-0.0904 -0.10839,-0.0935 0.008,-0.008 0.17474,0.0899 0.32181,0.18842 0.4137,0.27706 0.866,0.66984 1.7598,1.5282 0.50106,0.48119 2.92237,2.84017 2.92619,2.85086 0.002,0.005 -0.26805,0.27916 -0.59926,0.61032 l -0.60221,0.60212 z"
           id="path4156"
           inkscape:connector-curvature="0" />
        <path
           style="fill:#000000;fill-opacity:1;stroke:none;stroke-width:0.00584652"
           d="m 173.45853,137.10956 c -0.89553,-0.89662 -1.6243,-1.63021 -1.61949,-1.63021 0.005,0 0.73406,0.7253 1.62055,1.61179 l 1.6118,1.61179 0.0545,-0.0496 c 0.03,-0.0273 0.11498,-0.10445 0.18893,-0.17152 0.18663,-0.16922 0.38984,-0.3615 0.42515,-0.40225 0.0256,-0.0296 0.0288,-0.0359 0.0235,-0.047 -0.0114,-0.0243 -0.60202,-0.62518 -1.7982,-1.82969 -0.71466,-0.71964 -0.71838,-0.72351 -0.69592,-0.72351 0.0223,0 0.0417,0.0191 1.29687,1.2743 0.70086,0.70087 1.27308,1.27533 1.27161,1.27659 -0.002,0.001 -0.16928,0.16184 -0.37291,0.35687 -0.20362,0.19503 -0.372,0.35416 -0.37417,0.35363 -0.002,-5.3e-4 -0.73666,-0.73456 -1.6322,-1.63117 z"
           id="path4158"
           inkscape:connector-curvature="0" />
      </g>
    </g>
  </g>
</svg>
